<?xml version="1.0" standalone="no"?><!DOCTYPE svg PUBLIC "-//W3C//DTD SVG 1.1//EN" "http://www.w3.org/Graphics/SVG/1.1/DTD/svg11.dtd"><svg t="1640004048613" class="icon" viewBox="0 0 1024 1024" version="1.1" xmlns="http://www.w3.org/2000/svg" p-id="2119" xmlns:xlink="http://www.w3.org/1999/xlink" width="256" height="256"><defs><style type="text/css"></style></defs><path d="M300.84922 439.858322m-268.192196 0a268.192196 268.192196 0 1 0 536.384393 0 268.192196 268.192196 0 1 0-536.384393 0Z" fill="#E9EAEB" p-id="2120"></path><path d="M521.717632 881.595146h47.323785v31.573273h-47.323785zM632.187963 881.595146h47.323785v31.573273H632.187963zM584.864178 928.91893h31.573273v47.323785h-31.573273zM584.864178 818.52085h31.573273v47.323784h-31.573273zM68.8543 129.016919l31.566049-31.573273 22.325266 22.325267-31.573273 31.573273zM147.751358 50.090962l31.566048-31.573273 22.325267 22.325266-31.573273 31.573273zM147.708008 119.754463l22.325267-22.325267 31.573273 31.573273-22.325267 22.325267zM68.78205 40.857405l22.325267-22.325266 31.573273 31.573273-22.325266 22.325266z" fill="#BCC0C4" p-id="2121"></path><path d="M491.87836 52.959289L239.364425 305.473224l57.294292 57.294292c20.302265 20.302265 26.94927 17.412263 37.931278 6.358004s8.381006-46.962534 42.049531-56.860791c18.496014-5.418754 43.350032 5.924504 61.773795 24.781768s30.200522 43.350032 24.781768 61.773795c-9.826007 33.668525-44.722783 29.983772-56.860791 42.049531s-13.94426 17.629013 6.358004 37.931278L491.30036 557.409158l75.645805-75.429055c20.302265-20.302265 26.87702-17.412263 37.931278-6.358005s8.381006 46.962534 42.049531 56.860792c18.496014 5.418754 43.350032-5.996754 61.773795-24.781768s30.200522-43.350032 24.781768-61.773795c-9.826007-33.668525-44.722783-29.983772-56.860791-42.049531s-13.94426-17.629013 6.358004-37.931278L744.175545 304.895223z" fill="#A3D4FF" p-id="2122"></path><path d="M491.30036 579.734425L401.710294 489.999859c-20.013265-20.013265-28.900021-37.931278-6.358004-60.256544a60.256544 60.256544 0 0 1 24.420517-12.71601c15.028011-5.129754 24.492768-8.959007 28.466521-22.614266 3.395752-11.632259-5.491004-31.356523-20.591265-46.023284s-34.824526-24.348268-46.384534-20.952515c-13.65526 3.973753-17.484513 13.43851-22.614266 28.466521a60.256544 60.256544 0 0 1-12.71601 24.420518A36.125026 36.125026 0 0 1 317.900233 393.401538c-9.898257-0.794751-19.290764-6.430255-32.368024-19.507514L216.750159 305.473224l274.550201-274.550201 274.550201 274.550201-72.250053 72.250053a59.678544 59.678544 0 0 0-9.898257 11.776758 47.612785 47.612785 0 0 0 3.540252 3.829253 50.575037 50.575037 0 0 0 12.210259 5.129754c15.822762 5.418754 39.809779 13.51076 48.624286 43.350032 7.225005 23.481267-4.479503 53.898539-28.900021 77.596556-23.264517 24.059268-53.754039 35.474776-77.235307 28.900022-30.128272-8.814506-38.220278-32.729274-43.350032-48.552036a50.575037 50.575037 0 0 0-5.129753-12.210259 48.046285 48.046285 0 0 0-3.829253-3.540253A59.606294 59.606294 0 0 0 578.000423 493.106611zM414.065053 455.897834a59.606294 59.606294 0 0 0 9.898258 11.776759L491.30036 535.156142l64.302547-64.302547c20.013265-20.013265 37.859028-28.900021 60.256544-6.358005A60.256544 60.256544 0 0 1 628.57546 488.843858c5.129754 15.028011 8.959007 24.420518 22.614267 28.466521 11.560008 3.395752 31.356523-5.491004 46.023284-20.591265s24.420518-34.824526 21.024765-46.384534c-3.973753-13.65526-13.43851-17.484513-28.466521-22.614267a60.328794 60.328794 0 0 1-24.420518-12.716009c-22.397516-22.397516-13.65526-40.243279 6.358005-60.256544l49.708036-49.708037-229.538418-229.827418-230.188668 230.260919 46.167783 46.095533A59.823044 59.823044 0 0 0 319.634234 361.250265a46.601284 46.601284 0 0 0 3.829253-3.540253 50.141537 50.141537 0 0 0 5.202004-12.282509c5.418754-15.822762 13.51076-39.737529 43.350031-48.552036 23.481267-7.225005 53.898539 4.479503 77.596557 28.900022 24.059268 23.264517 35.474776 53.681789 28.900021 77.163056C469.625344 433.500318 445.710576 441.447823 429.887815 446.866577a50.575037 50.575037 0 0 0-12.282509 5.129754 47.323785 47.323785 0 0 0-3.540253 3.901503z" fill="#2A5082" p-id="2123"></path><path d="M760.865307 850.166373L532.04939 621.350455l22.325266-22.325266 206.490651 206.418401 42.049531-42.049531a62.135046 62.135046 0 0 0 8.670006-10.042757c-0.578-0.65025-1.445001-1.589501-2.745502-2.890002a50.575037 50.575037 0 0 0-10.982008-4.551754c-14.955761-5.057504-37.497777-12.788259-45.878783-41.25478-6.502505-22.180766 4.190503-50.575037 27.16602-73.189304 21.675016-22.614267 50.575037-33.307274 72.828053-26.804769 28.538771 8.381006 36.125026 30.923023 41.25478 45.878783a50.141537 50.141537 0 0 0 4.551754 10.982009c1.300501 1.300501 2.239752 2.167502 2.890002 2.745502a61.340295 61.340295 0 0 0 10.042757-8.670007l61.918295-61.846045-58.883793-59.100543c-12.354759-12.354759-17.701263-21.313766-18.423763-30.778523a34.174275 34.174275 0 0 1 12.499259-27.02152 56.860792 56.860792 0 0 1 23.120017-12.065759c13.65526-4.624003 22.180766-8.092006 25.721019-20.230014 3.034502-10.404008-5.057504-28.322021-18.857264-41.616031s-31.645523-22.253016-42.049531-19.218514c-12.138009 3.540253-15.606011 12.065759-20.230015 25.721019a56.860792 56.860792 0 0 1-12.065759 23.120017c-21.675016 21.675016-38.509278 13.14951-57.800042-5.924505l-28.322021-28.32202 22.325267-22.325267 28.466521 28.611021a61.990545 61.990545 0 0 0 10.042757 8.670007c0.65025-0.578 1.589501-1.445001 2.890002-2.745502a50.575037 50.575037 0 0 0 4.262753-10.982008c5.057504-14.955761 12.788259-37.497777 41.25478-45.806534 22.180766-6.502505 50.936287 4.190503 73.189304 27.23827 22.686517 21.675016 33.307274 50.575037 26.87702 72.828053-8.381006 28.538771-30.923023 36.125026-45.878784 41.254781a50.575037 50.575037 0 0 0-10.982008 4.551753c-1.300501 1.300501-2.167502 2.239752-2.745502 2.890002a61.773795 61.773795 0 0 0 8.670006 10.042757l81.28131 81.28131-83.882312 84.099062c-19.074014 19.074014-36.125026 27.31052-57.800042 5.924504a56.788542 56.788542 0 0 1-12.065759-23.120017c-4.624003-13.65526-8.092006-22.180766-20.302265-25.721019-10.404008-3.034502-28.322021 5.057504-41.61603 18.857264s-22.253016 31.573273-19.218514 41.977281c3.540253 12.210259 12.138009 15.678261 25.721019 20.302265a56.933042 56.933042 0 0 1 23.120017 12.065758 34.174275 34.174275 0 0 1 12.571509 26.80477c-0.722501 9.537007-6.069004 18.423763-18.423764 30.778523z" fill="#BCC0C4" p-id="2124"></path><path d="M280.835956 972.124462L533.349891 719.610527l-57.294292-57.294292c-20.302265-20.302265-26.94927-17.412263-37.931278-6.358005s-8.381006 46.962534-42.049531 56.860792c-18.496014 5.418754-43.350032-5.924504-61.773795-24.781768s-30.200522-43.350032-24.781768-61.773795c9.753757-33.813025 44.506033-29.983772 56.716291-42.049531s13.94426-17.629013-6.358004-37.931278L281.269456 467.602342 205.768151 543.103648c-20.302265 20.302265-26.87702 17.412263-37.931278 6.358004s-8.381006-46.962534-42.049531-56.860791c-18.496014-5.418754-43.350032 5.996754-61.773795 24.781768s-30.200522 43.350032-24.781768 61.773795c9.826007 33.668525 44.722783 29.983772 56.860791 42.049531s13.94426 17.629013-6.358004 37.931278L28.900021 720.116277z" fill="#A3D4FF" p-id="2125"></path><path d="M280.835956 994.449728l-274.550201-274.550201 72.250053-72.250053a59.389543 59.389543 0 0 0 9.898257-11.776758 45.662033 45.662033 0 0 0-3.540253-3.829253 50.069287 50.069287 0 0 0-12.282509-5.129754c-15.822762-5.418754-39.809779-13.51076-48.624285-43.350032-7.225005-23.481267 4.479503-53.898539 28.900021-77.596556 23.264517-24.059268 53.681789-35.474776 77.163056-28.900022 30.128272 8.814506 38.220278 32.729274 43.350032 48.552036a50.575037 50.575037 0 0 0 5.129754 12.210259 46.601284 46.601284 0 0 0 3.829253 3.540253 59.534044 59.534044 0 0 0 11.776758-9.898258l86.700064-86.700063 90.168066 90.312566c13.07726 13.07726 18.785014 22.469766 19.507514 32.368024a36.125026 36.125026 0 0 1-13.14951 27.88852 60.256544 60.256544 0 0 1-24.420517 12.716009c-15.028011 5.129754-24.492768 8.959007-28.466521 22.614267-3.395752 11.560008 5.491004 31.356523 20.591265 46.023284s34.824526 24.420518 46.384534 20.952515c13.65526-3.973753 17.484513-13.43851 22.614266-28.466521a60.256544 60.256544 0 0 1 12.71601-24.420518c22.397516-22.397516 40.243279-13.65526 60.256544 6.358005l68.5653 68.49305z m-229.755169-274.550201l229.755169 229.682918L511.024624 719.610527l-46.167784-46.095534a59.100543 59.100543 0 0 0-11.776758-9.898257 47.901785 47.901785 0 0 0-3.829253 3.540253 50.575037 50.575037 0 0 0-5.129754 12.282509c-5.418754 15.822762-13.51076 39.737529-43.350031 48.624285-23.481267 7.225005-53.97079-4.479503-77.596557-28.900021-24.059268-23.264517-35.474776-53.681789-28.900021-77.163056 8.814506-30.128272 32.729274-38.220278 48.552035-43.350032a50.575037 50.575037 0 0 0 12.282509-5.129754 47.323785 47.323785 0 0 0 3.540253-3.901503 59.461794 59.461794 0 0 0-9.898258-11.776758l-67.481549-67.48155L216.750159 554.230156c-13.07726 13.07726-22.469766 18.712764-32.368024 19.507514a36.125026 36.125026 0 0 1-27.88852-13.149509 60.184294 60.184294 0 0 1-12.71601-24.420518c-5.129754-15.028011-8.959007-24.420518-22.614266-28.466521-11.632259-3.395752-31.356523 5.491004-46.023284 20.591265S50.575037 563.550413 54.25979 574.821421c3.973753 13.65526 13.43851 17.484513 28.466521 22.614267a60.256544 60.256544 0 0 1 24.420517 12.716009 36.125026 36.125026 0 0 1 13.14951 27.88852c-0.794751 9.898257-6.430255 19.290764-19.507514 32.368024z" fill="#2A5082" p-id="2126"></path></svg>