<?xml version="1.0" standalone="no"?><!DOCTYPE svg PUBLIC "-//W3C//DTD SVG 1.1//EN" "http://www.w3.org/Graphics/SVG/1.1/DTD/svg11.dtd"><svg t="1640663541823" class="icon" viewBox="0 0 1024 1024" version="1.1" xmlns="http://www.w3.org/2000/svg" p-id="9127" xmlns:xlink="http://www.w3.org/1999/xlink" width="256" height="256"><defs><style type="text/css"></style></defs><path d="M861.035034 190.660983h-179.973934L592.052526 71.748738A153.582439 153.582439 0 0 0 469.678279 10.536528h-306.061051A153.431917 153.431917 0 0 0 10.536528 164.068793v696.414327a153.431917 153.431917 0 0 0 152.980352 153.532265h697.417806a153.431917 153.431917 0 0 0 152.980351-153.532265V344.243422A153.431917 153.431917 0 0 0 861.035034 190.660983zM90.313097 164.068793a73.404478 73.404478 0 0 1 73.203783-73.454652h306.061051a73.504826 73.504826 0 0 1 58.502818 29.301582L581.214954 190.660983H90.313097z m843.925719 696.414327a73.454652 73.454652 0 0 1-73.203782 73.454653h-697.417806A73.404478 73.404478 0 0 1 90.313097 860.48312V270.939291h770.721937a73.404478 73.404478 0 0 1 73.203782 73.304131z" fill="#8a8a8a" p-id="9128"></path></svg>