<?xml version="1.0" standalone="no"?><!DOCTYPE svg PUBLIC "-//W3C//DTD SVG 1.1//EN" "http://www.w3.org/Graphics/SVG/1.1/DTD/svg11.dtd"><svg t="1640005044256" class="icon" viewBox="0 0 1024 1024" version="1.1" xmlns="http://www.w3.org/2000/svg" p-id="5216" xmlns:xlink="http://www.w3.org/1999/xlink" width="256" height="256"><defs><style type="text/css"></style></defs><path d="M946.317241 1024 635.586207 1024c-42.372414 0-77.682759-35.310345-77.682759-77.682759L557.903448 635.586207c0-42.372414 35.310345-77.682759 77.682759-77.682759l310.731034 0c42.372414 0 77.682759 35.310345 77.682759 77.682759l0 310.731034C1024 988.689655 988.689655 1024 946.317241 1024L946.317241 1024zM946.317241 670.896552c0-21.186207-14.124138-42.372414-42.372414-42.372414L670.896552 628.524138C649.710345 635.586207 635.586207 649.710345 635.586207 670.896552l0 233.048276c0 21.186207 14.124138 42.372414 42.372414 42.372414l233.048276 0c21.186207 0 42.372414-14.124138 42.372414-42.372414L953.37931 670.896552 946.317241 670.896552zM946.317241 466.096552 635.586207 466.096552c-42.372414 0-77.682759-35.310345-77.682759-77.682759L557.903448 77.682759C557.903448 35.310345 593.213793 0 635.586207 0l310.731034 0c42.372414 0 77.682759 35.310345 77.682759 77.682759l0 310.731034C1024 430.786207 988.689655 466.096552 946.317241 466.096552L946.317241 466.096552zM946.317241 120.055172c0-21.186207-14.124138-42.372414-42.372414-42.372414L670.896552 77.682759C649.710345 77.682759 635.586207 98.868966 635.586207 120.055172L635.586207 353.103448c0 21.186207 14.124138 42.372414 42.372414 42.372414l233.048276 0c21.186207 0 42.372414-14.124138 42.372414-42.372414L953.37931 120.055172 946.317241 120.055172zM388.413793 1024 77.682759 1024C35.310345 1024 0 988.689655 0 946.317241L0 635.586207c0-42.372414 35.310345-77.682759 77.682759-77.682759l310.731034 0c42.372414 0 77.682759 35.310345 77.682759 77.682759l0 310.731034C466.096552 988.689655 430.786207 1024 388.413793 1024L388.413793 1024zM388.413793 670.896552C388.413793 649.710345 374.289655 635.586207 353.103448 635.586207L120.055172 635.586207C98.868966 635.586207 77.682759 649.710345 77.682759 670.896552l0 233.048276c0 21.186207 14.124138 42.372414 42.372414 42.372414L353.103448 946.317241c21.186207 0 42.372414-14.124138 42.372414-42.372414L388.413793 670.896552 388.413793 670.896552 388.413793 670.896552zM388.413793 466.096552 77.682759 466.096552C35.310345 466.096552 0 430.786207 0 388.413793L0 77.682759C0 35.310345 35.310345 0 77.682759 0l310.731034 0c42.372414 0 77.682759 35.310345 77.682759 77.682759l0 310.731034C466.096552 430.786207 430.786207 466.096552 388.413793 466.096552L388.413793 466.096552zM388.413793 120.055172c0-21.186207-14.124138-42.372414-42.372414-42.372414L120.055172 77.682759c-21.186207 0-42.372414 14.124138-42.372414 42.372414L77.682759 353.103448c0 21.186207 14.124138 42.372414 42.372414 42.372414L353.103448 395.475862c21.186207 0 42.372414-14.124138 42.372414-42.372414L388.413793 120.055172 388.413793 120.055172 388.413793 120.055172zM388.413793 120.055172" p-id="5217" fill="#2c2c2c"></path></svg>