<?xml version="1.0" standalone="no"?><!DOCTYPE svg PUBLIC "-//W3C//DTD SVG 1.1//EN" "http://www.w3.org/Graphics/SVG/1.1/DTD/svg11.dtd"><svg t="1645001504331" class="icon" viewBox="0 0 1024 1024" version="1.1" xmlns="http://www.w3.org/2000/svg" p-id="5188" xmlns:xlink="http://www.w3.org/1999/xlink" width="256" height="256"><defs><style type="text/css"></style></defs><path d="M512 162.432a320 320 0 0 1 319.68 306.112l0.32 13.888v309.12l32 0.128a96 96 0 0 1 0 192h-704a96 96 0 0 1 0-192l32-0.064V482.432a320 320 0 0 1 306.112-319.744L512 162.432z m331.712 701.888h-57.856l-5.76 0.512a32 32 0 0 0 5.76 63.488h57.856l5.76-0.576a32 32 0 0 0-5.76-63.424z m-241.792 0H181.376l-5.76 0.512a32 32 0 0 0 5.76 63.488h420.544l5.76-0.576a32 32 0 0 0-5.76-63.424zM562.88 320L384 554.88l79.616 28.736L419.84 774.4l179.968-222.912-83.84-30.208L562.944 320z" fill="#2c2c2c" p-id="5189"></path><path d="M998.912 353.792a32 32 0 0 1-20.48 40.32l-68.992 22.4a32 32 0 0 1-19.776-60.864l68.928-22.4a32 32 0 0 1 40.32 20.48zM65.408 333.248l68.928 22.4a32 32 0 0 1-19.84 60.8l-68.864-22.4a32 32 0 0 1 19.776-60.8z m747.52-235.52a32 32 0 0 1 7.04 44.8l-42.56 58.56a32 32 0 1 1-51.776-37.568l42.624-58.688a32 32 0 0 1 44.672-7.04z m-557.184 7.104l42.624 58.688a32 32 0 0 1-51.84 37.568l-42.56-58.624a32 32 0 0 1 51.84-37.632zM512 0a32 32 0 0 1 32 32v72.448a32 32 0 1 1-64 0V32A32 32 0 0 1 512 0z" fill="#2c2c2c" p-id="5190"></path></svg>