<?xml version="1.0" standalone="no"?><!DOCTYPE svg PUBLIC "-//W3C//DTD SVG 1.1//EN" "http://www.w3.org/Graphics/SVG/1.1/DTD/svg11.dtd"><svg t="1645012148563" class="icon" viewBox="0 0 1024 1024" version="1.1" xmlns="http://www.w3.org/2000/svg" p-id="2669" xmlns:xlink="http://www.w3.org/1999/xlink" width="256" height="256"><defs><style type="text/css"></style></defs><path d="M586.24 248.32c-18.944-18.432-49.664-19.456-69.632-1.536l-350.208 321.024c-18.944 16.896-19.968 46.08-3.072 64.512l2.048 2.048 220.672 221.184c17.92 17.92 46.592 17.92 64.512 0.512 0.512-0.512 1.024-1.536 2.048-2.048l321.024-350.208c17.92-19.968 17.408-50.176-1.536-69.12l-185.856-186.368z" fill="#3366FF" p-id="2670"></path><path d="M107.008 657.92c-19.968-17.408-50.176-15.872-68.096 4.096-15.872 17.92-15.872 45.568 0 63.488l258.56 258.56c17.92 19.456 48.64 20.48 68.096 2.56 19.456-17.92 20.48-48.64 2.56-68.096l-2.56-2.56c0 0.512-258.56-258.048-258.56-258.048z" fill="#AEC9FF" p-id="2671"></path><path d="M954.368 24.576c-73.216-2.048-226.816 9.728-327.168 127.488-1.536 3.584-17.92 36.864 7.168 62.464L808.96 389.632c6.656 6.656 28.16 22.528 61.952 3.584 46.592-44.544 127.488-148.48 126.464-327.68-1.024-33.792-30.72-39.936-43.008-40.96z" fill="#3366FF" p-id="2672"></path></svg>