<?xml version="1.0" standalone="no"?><!DOCTYPE svg PUBLIC "-//W3C//DTD SVG 1.1//EN" "http://www.w3.org/Graphics/SVG/1.1/DTD/svg11.dtd"><svg t="1645011597472" class="icon" viewBox="0 0 1024 1024" version="1.1" xmlns="http://www.w3.org/2000/svg" p-id="9113" xmlns:xlink="http://www.w3.org/1999/xlink" width="256" height="256"><defs><style type="text/css"></style></defs><path d="M740.810105 413.399579a30.342737 30.342737 0 0 1-16.815158-3.368421 37.268211 37.268211 0 0 1-13.473684-47.104 77.258105 77.258105 0 0 0 13.473684-47.104 97.603368 97.603368 0 0 0-195.179789 0 33.684211 33.684211 0 1 1-67.368421 0 164.890947 164.890947 0 0 1 329.781895 0 134.144 134.144 0 0 1-23.552 80.842105 29.965474 29.965474 0 0 1-26.866527 16.734316z" fill="#83D2EA" p-id="9114"></path><path d="M774.467368 854.123789H219.216842a180.951579 180.951579 0 0 1-181.733053-181.733052 175.616 175.616 0 0 1 94.31579-164.890948 248.751158 248.751158 0 0 1 471.120842-97.603368 166.777263 166.777263 0 0 1 289.414737 107.789474 207.494737 207.494737 0 0 1 67.368421 154.812631 186.071579 186.071579 0 0 1-185.236211 181.625263z m-397.096421-514.694736A180.978526 180.978526 0 0 0 195.637895 521.162105v6.736842a32.336842 32.336842 0 0 1-23.552 30.288842 109.271579 109.271579 0 0 0-70.682948 111.050106 113.475368 113.475368 0 0 0 114.418527 114.418526h555.250526a113.475368 113.475368 0 0 0 114.418526-114.418526 140.449684 140.449684 0 0 0-53.894737-107.789474 27.567158 27.567158 0 0 1-13.473684-33.657263v-6.736842a97.603368 97.603368 0 0 0-195.179789 0 33.684211 33.684211 0 0 1-67.368421 0 176.074105 176.074105 0 0 0-178.202948-181.625263z" fill="#208BB5" p-id="9115"></path></svg>