<?xml version="1.0" standalone="no"?><!DOCTYPE svg PUBLIC "-//W3C//DTD SVG 1.1//EN" "http://www.w3.org/Graphics/SVG/1.1/DTD/svg11.dtd"><svg t="1650798214615" class="icon" viewBox="0 0 1024 1024" version="1.1" xmlns="http://www.w3.org/2000/svg" p-id="6802" xmlns:xlink="http://www.w3.org/1999/xlink" width="256" height="256"><defs><style type="text/css">@font-face { font-family: feedback-iconfont; src: url("//at.alicdn.com/t/font_1031158_u69w8yhxdu.woff2?t=1630033759944") format("woff2"), url("//at.alicdn.com/t/font_1031158_u69w8yhxdu.woff?t=1630033759944") format("woff"), url("//at.alicdn.com/t/font_1031158_u69w8yhxdu.ttf?t=1630033759944") format("truetype"); }
</style></defs><path d="M51.882667 269.312S145.237333 125.354667 292.522667 48.213333C440.234667-29.013333 621.909333-6.826667 740.949333 68.010667c119.296 74.837333 159.402667 138.069333 159.402667 138.069333l102.570667-58.538667s21.248-10.496 21.248 14.08v367.36s0 32.768-24.832 20.992c-20.736-9.813333-246.272-138.069333-317.269334-178.432-38.912-17.493333-4.778667-31.573333-4.778666-31.573333l99.157333-56.661333s-56.576-70.826667-139.178667-108.373334c-88.576-46.08-171.349333-51.626667-272.896-13.141333-66.218667 24.917333-144.213333 89.002667-200.277333 183.466667l-112.128-75.946667z m920.32 485.461333s-93.269333 143.872-240.64 221.013334c-147.456 77.226667-329.216 55.04-448.256-19.797334C163.925333 881.152 123.818667 817.834667 123.818667 817.834667l-102.656 58.538666S0.085333 886.869333 0.085333 862.464V494.933333s0-32.682667 24.832-21.077333c20.736 9.813333 246.186667 138.069333 317.269334 178.602667 38.912 17.322667 4.693333 31.573333 4.693333 31.573333l-99.157333 56.661333s56.661333 70.741333 139.264 108.202667c88.490667 46.165333 171.349333 51.626667 272.810666 13.226667 66.218667-24.917333 144.213333-88.917333 200.277334-183.466667l112.128 75.946667v0.170666z" p-id="6803" fill="#bfbfbf"></path></svg>