<?xml version="1.0" standalone="no"?><!DOCTYPE svg PUBLIC "-//W3C//DTD SVG 1.1//EN" "http://www.w3.org/Graphics/SVG/1.1/DTD/svg11.dtd"><svg t="1646274347761" class="icon" viewBox="0 0 1024 1024" version="1.1" xmlns="http://www.w3.org/2000/svg" p-id="4997" xmlns:xlink="http://www.w3.org/1999/xlink" width="256" height="256"><defs><style type="text/css"></style></defs><path d="M150.528 459.264l205.824-138.752 147.456 107.52c5.632 3.072 11.776 5.12 17.92 5.632 10.24 1.536 20.992-0.512 29.696-5.632L915.968 184.32c23.552-10.24 33.792-37.888 23.552-60.928-7.168-16.384-24.064-27.136-41.984-27.648h-231.424c-25.6 0-46.08 20.48-46.08 46.08s20.48 46.08 46.08 46.08h78.336L528.896 332.8 381.44 225.28c-8.704-5.12-19.456-7.168-29.696-5.632-6.656 0.512-12.8 2.56-18.432 5.632L104.448 379.392c-21.504 13.312-28.16 41.984-14.848 64 12.8 19.968 39.424 27.136 60.928 15.872z" fill="#AEC9FF" p-id="4998"></path><path d="M521.728 542.208c-6.144-0.512-12.288-2.56-17.408-5.632l-146.944-107.52L79.872 624.64v211.456c0 51.2 41.472 92.672 92.672 92.672h678.4c51.2 0 92.672-41.472 92.672-92.672V273.92l-392.192 262.656c-8.704 5.12-19.456 7.68-29.696 5.632z" fill="#3366FF" p-id="4999"></path></svg>