<?xml version="1.0" standalone="no"?><!DOCTYPE svg PUBLIC "-//W3C//DTD SVG 1.1//EN" "http://www.w3.org/Graphics/SVG/1.1/DTD/svg11.dtd"><svg t="1640006139748" class="icon" viewBox="0 0 1024 1024" version="1.1" xmlns="http://www.w3.org/2000/svg" p-id="11319" xmlns:xlink="http://www.w3.org/1999/xlink" width="256" height="256"><defs><style type="text/css"></style></defs><path d="M960 160H64a32 32 0 0 0-32 32v640a32 32 0 0 0 32 32h896a32 32 0 0 0 32-32V192a32 32 0 0 0-32-32zM256 256a96 96 0 1 1-96 96 96 96 0 0 1 96-96zM128 800l246.4-307.84a32 32 0 0 1 49.92 0l79.04 98.56 79.04-98.56a32 32 0 0 1 49.92 0L879.36 800z" fill="#015478" p-id="11320"></path></svg>