<?xml version="1.0" standalone="no"?><!DOCTYPE svg PUBLIC "-//W3C//DTD SVG 1.1//EN" "http://www.w3.org/Graphics/SVG/1.1/DTD/svg11.dtd"><svg t="1645012841832" class="icon" viewBox="0 0 1024 1024" version="1.1" xmlns="http://www.w3.org/2000/svg" p-id="9981" xmlns:xlink="http://www.w3.org/1999/xlink" width="256" height="256"><defs><style type="text/css"></style></defs><path d="M844 117.75c-45.84 0-83 37.16-83 83V844c0 36.11-30.01 62.25-61.78 62.25H221.5v-705.5c0-50.05 41.5-83 83-83H844z" fill="#386BF3" p-id="9982"></path><path d="M761 200.75c0-45.84 37.16-83 83-83s83 37.16 83 83v83H761v-83z" fill="#3D4265" p-id="9983"></path><path d="M726.41 899.78a62.007 62.007 0 0 1-27.19 6.46h30.89-570.86C124.87 906.25 97 878.38 97 844v-62.25h539.5V844c0 34.38 27.87 62.25 62.25 62.25 9.94 0 19.32-2.33 27.66-6.47z" fill="#C3D2FB" p-id="9984"></path><path d="M470.5 325.25H678v83H470.5zM304.5 491.25H678v83H304.5z" fill="#3D4265" p-id="9985"></path></svg>