<?xml version="1.0" standalone="no"?><!DOCTYPE svg PUBLIC "-//W3C//DTD SVG 1.1//EN" "http://www.w3.org/Graphics/SVG/1.1/DTD/svg11.dtd"><svg t="1645011962116" class="icon" viewBox="0 0 1024 1024" version="1.1" xmlns="http://www.w3.org/2000/svg" p-id="2300" xmlns:xlink="http://www.w3.org/1999/xlink" width="256" height="256"><defs><style type="text/css"></style></defs><path d="M861.696 814.08l-302.08-302.08L614.4 457.216c106.496 91.648 243.2 122.88 358.4 90.624-7.68 98.304-46.592 191.488-111.104 266.24zM162.304 814.08c-63.488-73.216-102.4-164.864-111.104-261.632 93.696-35.84 212.992-12.288 306.688 66.048L162.304 814.08z" fill="#3366FF" p-id="2301"></path><path d="M618.496 357.888C540.16 264.704 517.12 145.408 552.96 51.2c96.768 8.192 187.904 47.104 261.632 110.592l-196.096 196.096zM405.504 666.112C483.84 759.808 506.88 878.592 471.04 972.8c-96.768-8.704-187.904-47.104-261.632-110.592l196.096-196.096z" fill="#AEC9FF" p-id="2302"></path><path d="M972.8 471.04c-93.696 35.84-212.992 12.8-306.688-65.536L862.208 209.92c63.488 73.216 102.4 164.352 110.592 261.12zM475.648 51.2c-32.256 115.2-1.024 251.904 90.624 358.4L512 464.384l-302.08-302.08C284.16 97.792 377.344 58.88 475.648 51.2zM162.304 209.92l302.08 302.08L409.6 566.784C303.104 474.624 166.4 443.392 51.2 476.16c7.68-98.304 46.592-192 111.104-266.24zM548.352 972.8c32.256-115.2 1.024-251.904-90.624-358.4l54.784-54.784 302.08 302.08a462.49472 462.49472 0 0 1-266.24 111.104z" fill="#3366FF" p-id="2303"></path></svg>