<?xml version="1.0" standalone="no"?><!DOCTYPE svg PUBLIC "-//W3C//DTD SVG 1.1//EN" "http://www.w3.org/Graphics/SVG/1.1/DTD/svg11.dtd"><svg t="1645013247994" class="icon" viewBox="0 0 1088 1024" version="1.1" xmlns="http://www.w3.org/2000/svg" p-id="12819" xmlns:xlink="http://www.w3.org/1999/xlink" width="272" height="256"><defs><style type="text/css"></style></defs><path d="M548.693074 691.429998a201.497457 201.497457 0 0 0 189.872604-110.823601A177.47276 177.47276 0 0 0 697.491196 373.684008a207.697378 207.697378 0 0 0-217.772251-44.174442A188.322623 188.322623 0 0 0 357.270491 503.882365a179.02274 179.02274 0 0 0 54.249315 130.973347 200.722466 200.722466 0 0 0 137.173268 56.574286z m-203.047437 197.622505a523.893387 523.893387 0 0 1-112.373581-77.499021 403.769904 403.769904 0 0 1-145.698161-218.547242 432.444542 432.444542 0 0 1-16.274795-117.798513C71.2991 212.486043 309.996087 0.138723 607.592331 0.138723A547.143094 547.143094 0 0 1 1084.986305 258.985456 494.443759 494.443759 0 0 0 749.415541 131.88706h-10.074873a554.892996 554.892996 0 0 1 112.373582 77.499022 406.094874 406.094874 0 0 1 145.698161 221.647202 437.869473 437.869473 0 0 1 16.274794 118.573504c0 261.946694-240.246968 474.294013-536.293231 474.294013A547.918084 547.918084 0 0 1 0 762.729098a493.668769 493.668769 0 0 0 335.570764 126.323405z" fill="#E99311" p-id="12820"></path></svg>