<?xml version="1.0" standalone="no"?><!DOCTYPE svg PUBLIC "-//W3C//DTD SVG 1.1//EN" "http://www.w3.org/Graphics/SVG/1.1/DTD/svg11.dtd"><svg t="1645012335790" class="icon" viewBox="0 0 1104 1024" version="1.1" xmlns="http://www.w3.org/2000/svg" p-id="4896" xmlns:xlink="http://www.w3.org/1999/xlink" width="276" height="256"><defs><style type="text/css"></style></defs><path d="M690.454 692.958c-15.982-61.615-2.529-119.111 40.362-172.483 42.891-53.37 101.332-87.858 175.323-103.464-26.072-91.11-76.305-165.736-150.703-223.885-74.397-58.146-159.115-87.22-254.151-87.22-22.71 0-45.418 1.955-68.129 5.872-22.71 3.917-44.355 9.347-64.94 16.287-20.583 6.94-40.549 15.62-59.895 26.033a462.73 462.73 0 0 0-55.497 35.155 368.116 368.116 0 0 0-49.2 43.61c-15.147 16.052-29.017 32.977-41.61 50.78-12.593 17.797-24.15 36.664-34.671 56.602-10.52 19.938-19.144 40.54-25.87 61.815-6.725 21.271-11.985 43.61-15.78 67.017C81.898 492.486 80 515.92 80 539.389c0 46.872 7.145 92.428 21.433 136.663C115.72 720.284 135.9 760.2 161.975 795.8c26.072 35.6 56.342 66.618 90.81 93.053 34.47 26.435 73.146 47.04 116.037 61.812 42.889 14.774 87.03 22.147 132.422 22.121 63.904 0 123.612-13.665 179.119-40.991 55.51-27.321 103.014-64.851 142.513-112.583-71.464-21.692-115.605-63.771-132.422-126.252v-0.003z m-189.21 16.953c-45.418 0-84.313-16.702-116.682-50.11-32.37-33.404-48.554-73.545-48.554-120.417 0-31.24 7.357-59.883 22.078-85.931 14.72-26.049 34.898-46.652 60.54-61.815 25.641-15.16 53.182-22.756 82.618-22.785 46.252 0 85.564 16.702 117.936 50.11 32.372 33.404 48.557 73.546 48.554 120.42 0 31.238-7.36 59.883-22.078 85.929-14.72 26.048-34.898 46.654-60.543 61.815-25.641 15.16-53.597 22.756-83.867 22.784h-0.002zM1104 247.814c-11.786-24.297-24.405-46.636-37.858-67.02-13.453-20.38-27.124-37.082-41.007-50.107-13.883-13.026-27.968-24.52-42.259-34.49-14.285-9.968-28.158-17.561-41.61-22.786-13.454-5.223-26.275-9.565-38.463-13.033-12.188-3.47-23.327-5.428-33.419-5.873-10.092-0.448-18.916-0.671-26.478-0.668-7.56 0.002-13.451 0.435-17.675 1.29h-6.298l-65.586-3.914c36.998 49.457 68.948 96.316 95.856 140.58 26.906 44.26 47.505 82.013 61.79 113.254 14.287 31.237 25.843 59.23 34.67 83.97 8.827 24.74 14.086 45.788 15.78 63.143 1.695 17.357 2.328 30.588 1.898 39.696-0.428 9.106-1.478 16.702-3.147 22.787-33.634-17.357-71.049-20.396-112.243-9.124-38.692 11.275-68.75 32.533-90.167 63.769-21.415 31.24-27.928 62.908-19.533 95.01s29.207 55.746 62.437 70.937c33.232 15.189 69.18 17.145 107.844 5.873 19.347-6.083 37.009-14.981 52.993-26.701 15.983-11.718 28.804-24.948 38.463-39.694s21.658-30.795 25.022-48.15c31.266-87.218 16.36-194.81-73.617-373.583l-45.405-83.304L1104 247.814zM501.244 446.958c-15.983 0-30.903 4.124-44.76 12.37-13.855 8.246-24.794 19.536-32.812 33.865-8.021 14.33-12.015 29.727-11.987 46.193 0 25.158 8.825 46.86 26.476 65.102 17.652 18.246 38.88 27.352 63.69 27.326 24.806-0.028 45.834-9.137 63.082-27.326 17.247-18.189 25.871-39.888 25.869-65.102 0-25.214-8.622-46.913-25.87-65.102-17.247-18.19-38.474-27.298-63.688-27.326z" fill="#A689CB" p-id="4897"></path></svg>