<?xml version="1.0" standalone="no"?><!DOCTYPE svg PUBLIC "-//W3C//DTD SVG 1.1//EN" "http://www.w3.org/Graphics/SVG/1.1/DTD/svg11.dtd"><svg t="1640004819121" class="icon" viewBox="0 0 1024 1024" version="1.1" xmlns="http://www.w3.org/2000/svg" p-id="2472" xmlns:xlink="http://www.w3.org/1999/xlink" width="256" height="256"><defs><style type="text/css"></style></defs><path d="M510.081349 265.817368c168.501356 0 313.535623 98.836189 381.408405 241.473681l66.139957 0c-71.684198-176.909056-244.910351-301.812571-447.548562-301.812571-202.609631 0-375.835783 124.908512-447.515385 301.812571l66.140956 0C196.578704 364.653557 341.61337 265.817368 510.081349 265.817368zM510.081349 748.770725c-168.467779 0-313.502645-98.830793-381.374428-241.479677L62.565764 507.291049c71.679801 176.945631 244.905754 301.853543 447.515385 301.853543 202.638011 0 375.864164-124.907912 447.548562-301.853543l-66.139957 0C823.616972 649.939933 678.582705 748.770725 510.081349 748.770725zM349.12028 507.311635c0 88.906921 72.062542 160.97386 160.975858 160.97386 88.906521 0 160.97346-72.066939 160.97346-160.97386 0-88.911918-72.066939-160.980056-160.97346-160.980056C421.182822 346.331579 349.12028 418.399517 349.12028 507.311635zM610.726711 507.311635c0 55.561729-45.065246 100.625976-100.630572 100.625976-55.566726 0-100.596995-45.064246-100.596995-100.625976 0-55.565726 45.030269-100.630972 100.596995-100.630972C565.661466 406.680463 610.726711 451.745908 610.726711 507.311635z" p-id="2473" fill="#8a8a8a"></path></svg>