<svg xmlns:xlink="http://www.w3.org/1999/xlink" xmlns="http://www.w3.org/2000/svg" version="1.1" viewBox="0 0 400 400" height="400px" width="400px">
    <title>暂无运单</title>
    <defs>
        <linearGradient id="linearGradient-1" y2="50%" x2="-25.0446012%" y1="50%" x1="120.941398%">
            <stop offset="0%" stop-opacity="0" stop-color="#B2CAF4"></stop>
            <stop offset="100%" stop-color="#81BAFF"></stop>
        </linearGradient>
        <filter id="filter-2" filterUnits="objectBoundingBox" height="154.5%" width="105.5%" y="-27.3%" x="-2.7%">
            <feGaussianBlur in="SourceGraphic" stdDeviation="1"></feGaussianBlur>
        </filter>
        <filter id="filter-3" filterUnits="objectBoundingBox" height="1780.6%" width="610.7%" y="-840.3%" x="-255.4%">
            <feGaussianBlur in="SourceGraphic" stdDeviation="11 0"></feGaussianBlur>
        </filter>
        <linearGradient id="linearGradient-4" y2="100%" x2="40.5602192%" y1="9.70683346%" x1="56.0629425%">
            <stop offset="0%" stop-color="#EDF5FF"></stop>
            <stop offset="100%" stop-color="#A1B6CC"></stop>
        </linearGradient>
        <linearGradient id="linearGradient-5" y2="100%" x2="57.1197514%" y1="7.58435735%" x1="45.3436671%">
            <stop offset="0%" stop-color="#EEF4FF"></stop>
            <stop offset="100%" stop-color="#A1B6CC"></stop>
        </linearGradient>
        <linearGradient id="linearGradient-6" y2="-44.1478976%" x2="42.237335%" y1="100%" x1="42.237335%">
            <stop offset="0%" stop-color="#F7F8F9"></stop>
            <stop offset="100%" stop-color="#D5E4F8"></stop>
        </linearGradient>
        <linearGradient id="linearGradient-7" y2="2.85716708%" x2="42.237335%" y1="99.7096706%" x1="42.237335%">
            <stop offset="0%" stop-opacity="0" stop-color="#F2F4F9"></stop>
            <stop offset="100%" stop-color="#E7EEFF"></stop>
        </linearGradient>
        <linearGradient id="linearGradient-8" y2="2.85716708%" x2="42.237335%" y1="99.7096706%" x1="42.237335%">
            <stop offset="0%" stop-opacity="0" stop-color="#F2F4F9"></stop>
            <stop offset="100%" stop-color="#E7EEFF"></stop>
        </linearGradient>
        <linearGradient id="linearGradient-9" y2="0%" x2="42.237335%" y1="100%" x1="42.237335%">
            <stop offset="0.290329392%" stop-opacity="0" stop-color="#F2F4F9"></stop>
            <stop offset="97.9756123%" stop-color="#EAF0FF"></stop>
        </linearGradient>
        <filter id="filter-10" filterUnits="objectBoundingBox" height="2180.4%" width="765.8%" y="-1040.2%" x="-332.9%">
            <feGaussianBlur in="SourceGraphic" stdDeviation="11 0"></feGaussianBlur>
        </filter>
        <linearGradient id="linearGradient-11" y2="100%" x2="39.1222879%" y1="9.70683346%" x1="56.9864909%">
            <stop offset="0%" stop-color="#EDF5FF"></stop>
            <stop offset="100%" stop-color="#A1B6CC"></stop>
        </linearGradient>
        <linearGradient id="linearGradient-12" y2="100%" x2="58.6525294%" y1="7.58435735%" x1="44.341227%">
            <stop offset="0%" stop-color="#EEF4FF"></stop>
            <stop offset="100%" stop-color="#A1B6CC"></stop>
        </linearGradient>
        <filter id="filter-13" filterUnits="objectBoundingBox" height="1767.4%" width="607.7%" y="-833.7%" x="-253.8%">
            <feGaussianBlur in="SourceGraphic" stdDeviation="11 0"></feGaussianBlur>
        </filter>
        <linearGradient id="linearGradient-14" y2="100%" x2="39.0945518%" y1="9.70683346%" x1="57.0043051%">
            <stop offset="0%" stop-color="#EDF5FF"></stop>
            <stop offset="100%" stop-color="#A1B6CC"></stop>
        </linearGradient>
        <linearGradient id="linearGradient-15" y2="100%" x2="58.7826852%" y1="7.58435735%" x1="44.2561048%">
            <stop offset="0%" stop-color="#EEF4FF"></stop>
            <stop offset="100%" stop-color="#A1B6CC"></stop>
        </linearGradient>
        <linearGradient id="linearGradient-16" y2="100%" x2="50%" y1="0%" x1="50%">
            <stop offset="0%" stop-color="#F4F8FF"></stop>
            <stop offset="100%" stop-color="#CCD8EB"></stop>
        </linearGradient>
        <linearGradient id="linearGradient-17" y2="100%" x2="50%" y1="0%" x1="50%">
            <stop offset="0%" stop-color="#E8EFFB"></stop>
            <stop offset="100%" stop-color="#CCD8EB"></stop>
        </linearGradient>
        <linearGradient id="linearGradient-18" y2="100%" x2="50%" y1="0%" x1="50%">
            <stop offset="0%" stop-color="#E8EFFB"></stop>
            <stop offset="100%" stop-color="#CCD8EB"></stop>
        </linearGradient>
        <linearGradient id="linearGradient-19" y2="98.5389852%" x2="50%" y1="0.440772804%" x1="50%">
            <stop offset="0%" stop-color="#DCE5F4"></stop>
            <stop offset="100%" stop-color="#F3F9FF"></stop>
        </linearGradient>
        <path id="path-20" d="M12,7.10542736e-14 L94.5168539,7.10542736e-14 C101.144271,6.806048e-14 106.516854,5.372583 106.516854,12 L106.516854,116.85171 C106.516854,135.629391 91.2945354,150.85171 72.5168539,150.85171 L-3.55271368e-14,150.85171 L-3.55271368e-14,150.85171 L-3.55271368e-14,12 C-3.63387613e-14,5.372583 5.372583,7.04953535e-14 12,7.10542736e-14 Z"></path>
        <linearGradient id="linearGradient-22" y2="98.5389852%" x2="50%" y1="0.440772804%" x1="50%">
            <stop offset="0%" stop-color="#FFFFFF"></stop>
            <stop offset="100%" stop-color="#F3F9FF"></stop>
        </linearGradient>
        <linearGradient id="linearGradient-23" y2="49.1630414%" x2="5.87347724%" y1="50.4716088%" x1="100%">
            <stop offset="0%" stop-color="#E8EFFB"></stop>
            <stop offset="100%" stop-color="#B4C5DC"></stop>
        </linearGradient>
        <linearGradient id="linearGradient-24" y2="47.13843%" x2="5.87347724%" y1="51.6124353%" x1="100%">
            <stop offset="0%" stop-color="#E8EFFB"></stop>
            <stop offset="100%" stop-color="#B4C5DC"></stop>
        </linearGradient>
        <path id="path-25" d="M20,0 L33.7303371,0 L33.7303371,0 L33.7303371,87.4471841 C33.7303371,96.7615594 26.1795439,104.312353 16.8651685,104.312353 C7.55079315,104.312353 8.24610936e-15,96.7615594 0,87.4471841 L0,20 C-4.90542118e-15,8.954305 8.954305,-1.52365243e-15 20,0 Z"></path>
        <linearGradient id="linearGradient-27" y2="100%" x2="50%" y1="0%" x1="50%">
            <stop offset="0%" stop-color="#E6F1FD"></stop>
            <stop offset="100%" stop-color="#AABCD6"></stop>
        </linearGradient>
        <linearGradient id="linearGradient-28" y2="9.39159536%" x2="5.87347724%" y1="72.8819926%" x1="100%">
            <stop offset="0%" stop-color="#E8EFFB"></stop>
            <stop offset="100%" stop-color="#B4C5DC"></stop>
        </linearGradient>
        <linearGradient id="linearGradient-29" y2="100%" x2="50%" y1="0.440772804%" x1="50%">
            <stop offset="0%" stop-opacity="0.635708042" stop-color="#FFFFFF"></stop>
            <stop offset="100%" stop-opacity="0.0974377185" stop-color="#FFFFFF"></stop>
        </linearGradient>
    </defs>
    <g fill-rule="evenodd" fill="none" stroke-width="1" stroke="none" id="页面-1">
        <g id="暂无运单">
            <g id="编组-14">
                <rect height="400" width="400" y="0" x="0" fill="#FFFFFF" id="矩形"></rect>
                <ellipse ry="5.5" rx="55" cy="326.5" cx="200" filter="url(#filter-2)" opacity="0.330984933" style="mix-blend-mode: multiply;" fill="url(#linearGradient-1)" id="椭圆形"></ellipse>
                <g transform="translate(62.000000, 217.000000)" opacity="0.779366629" id="编组备份-2">
                    <ellipse ry="1.96363636" rx="6.46153846" cy="30.4363636" cx="17.5384615" filter="url(#filter-3)" opacity="0.598842076" fill="#85A0C7" id="椭圆形"></ellipse>
                    <path opacity="0.576520647" fill="url(#linearGradient-4)" id="椭圆形" d="M11.8617335,30.4039701 C13.694791,31.1838754 22.2783852,17.6565961 23.5292687,14.0447619 C24.7801522,10.4329278 23.4521686,6.50850351 20.5631343,5.27931501 C17.6740999,4.05012652 14.3180334,5.98164248 13.0671499,9.59347665 C11.8162664,13.2053108 10.028676,29.6240648 11.8617335,30.4039701 Z"></path>
                    <path fill="url(#linearGradient-5)" id="椭圆形" d="M12.1873699,30.4182368 C14.4159111,29.7723371 14.0881815,10.5754182 13.0126041,6.23350474 C11.9370266,1.89159124 8.21777978,-0.802984658 4.70543378,0.215001032 C1.19308778,1.23298672 -0.782303428,5.57804352 0.293274029,9.91995703 C1.36885149,14.2618705 9.95882868,31.0641365 12.1873699,30.4182368 Z"></path>
                </g>
                <path opacity="0.7" fill="url(#linearGradient-6)" id="形状结合" d="M94.5,106 C94.0401728,106 93.5872492,105.970442 93.1430256,105.913122 C92.6035521,105.970811 92.0551848,106 91.5,106 C82.9395864,106 76,99.0604136 76,90.5 C76,81.9395864 82.9395864,75 91.5,75 C92.4860328,75 93.4505611,75.0920718 94.3854566,75.2680872 C97.8949844,68.5703522 104.913761,64 113,64 C124.59798,64 134,73.4020203 134,85 L134,85 L146.5,85 C152.29899,85 157,89.7010101 157,95.5 C157,101.29899 152.29899,106 146.5,106 L94.5,106 Z"></path>
                <g transform="translate(40.000000, 244.000000)" id="编组-2">
                    <path fill="url(#linearGradient-7)" id="路径" d="M0,52 C17.3733745,26.5416667 33.962502,13.8125 49.7673826,13.8125 C65.5722631,13.8125 83.6498023,26.5416667 104,52 L0,52 Z"></path>
                    <path fill="url(#linearGradient-8)" id="路径-2" d="M61.6,52 C79.9318409,17.3333333 99.5499102,0 120.454208,0 C141.358506,0 179.340436,17.3333333 234.4,52 L61.6,52 Z"></path>
                    <path fill="url(#linearGradient-9)" id="路径-3" d="M320,52 C300.857606,24.9166667 282.803627,11.375 265.838063,11.375 C248.872499,11.375 221.593145,24.9166667 184,52 L320,52 Z"></path>
                </g>
                <g transform="translate(286.000000, 199.000000)" id="编组-62">
                    <ellipse ry="1.5862069" rx="4.95652174" cy="21.4137931" cx="14.0434783" filter="url(#filter-10)" opacity="0.669852121" fill="#85A0C7" id="椭圆形"></ellipse>
                    <path opacity="0.576520647" fill="url(#linearGradient-11)" id="椭圆形" d="M9.68896947,21.3906452 C11.0950726,21.947953 17.6793824,12.2815764 18.6389111,9.70061766 C19.5984398,7.11965894 18.5797691,4.31532836 16.3636465,3.43697 C14.1475239,2.55861163 11.5731499,3.93884193 10.6136212,6.51980065 C9.65409256,9.10075937 8.28286637,20.8333374 9.68896947,21.3906452 Z"></path>
                    <path fill="url(#linearGradient-12)" id="椭圆形" d="M9.4525712,21.4010398 C11.1810364,20.9466109 10.926848,7.44043608 10.092626,4.38564154 C9.25840396,1.330847 6.37374176,-0.564947493 3.64955262,0.151266021 C0.925363493,0.867479535 -0.606757562,3.92448557 0.22746447,6.97928011 C1.0616865,10.0340747 7.72410601,21.8554686 9.4525712,21.4010398 Z"></path>
                </g>
                <g transform="translate(295.000000, 292.000000)" opacity="0.896856399" id="编组">
                    <ellipse ry="1.97916667" rx="6.5" cy="36.0208333" cx="20.9" filter="url(#filter-13)" opacity="0.596865699" fill="#85A0C7" id="椭圆形"></ellipse>
                    <path opacity="0.576520647" fill="url(#linearGradient-14)" id="椭圆形" d="M16.2202535,36.3774869 C18.6032282,37.3207752 29.7619008,20.9596562 31.3880493,16.5911762 C33.0141979,12.2226962 31.2878192,7.47614139 27.5320746,5.98944929 C23.7763299,4.5027572 19.4134435,6.83890786 17.7872949,11.2073878 C16.1611463,15.5758678 13.8372788,35.4341987 16.2202535,36.3774869 Z"></path>
                    <path fill="url(#linearGradient-15)" id="椭圆形" d="M16.1956605,36.3949782 C19.1571441,35.6221686 18.7216279,12.6533342 17.2923049,7.45829781 C15.862982,2.26326142 10.9205162,-0.96075947 6.25299867,0.25724561 C1.58548109,1.47525069 -1.03959433,6.67404799 0.389728598,11.8690844 C1.81905153,17.0641208 13.2341768,37.1677877 16.1956605,36.3949782 Z"></path>
                </g>
            </g>
            <g transform="translate(117.000000, 126.000000)" id="编组-18">
                <g id="编组-4">
                    <path fill="url(#linearGradient-16)" id="矩形" d="M53.7303371,9.9475983e-14 L138,9.9475983e-14 C149.045695,8.76363738e-14 158,8.954305 158,20 L158,130.109375 C158,152.200765 140.09139,170.109375 118,170.109375 L33.7303371,170.109375 L33.7303371,170.109375 L33.7303371,20 C33.7303371,8.954305 42.6846421,1.01505044e-13 53.7303371,9.9475983e-14 Z"></path>
                    <path fill="url(#linearGradient-17)" id="矩形备份-10" d="M53.7303371,3 L138,3 C149.045695,3 158,11.954305 158,23 L158,130.109375 C158,152.200765 140.09139,170.109375 118,170.109375 L33.7303371,170.109375 L33.7303371,170.109375 L33.7303371,23 C33.7303371,11.954305 42.6846421,3 53.7303371,3 Z"></path>
                    <path fill="url(#linearGradient-18)" id="矩形" d="M20,65.7970224 L33.7303371,65.7970224 L33.7303371,65.7970224 L33.7303371,170.109375 L20,170.109375 C8.954305,170.109375 1.11632554e-14,161.15507 0,150.109375 L0,85.7970224 C-1.3527075e-15,74.7513274 8.954305,65.7970224 20,65.7970224 Z"></path>
                    <g transform="translate(42.606742, 9.628833)" id="矩形备份-19">
                        <mask fill="white" id="mask-21">
                            <use xlink:href="#path-20"></use>
                        </mask>
                        <use xlink:href="#path-20" fill="url(#linearGradient-19)" id="蒙版"></use>
                        <path mask="url(#mask-21)" fill="url(#linearGradient-22)" d="M12,3 L94.5168539,3 C101.144271,3 106.516854,8.372583 106.516854,15 L106.516854,119.85171 C106.516854,138.629391 91.2945354,153.85171 72.5168539,153.85171 L-3.55271368e-14,153.85171 L-3.55271368e-14,153.85171 L-3.55271368e-14,15 C-3.63387613e-14,8.372583 5.372583,3 12,3 Z"></path>
                    </g>
                    <rect rx="5.61681899" height="11.233638" width="78.2898876" y="32.0961085" x="60.5370787" opacity="0.597330729" fill="url(#linearGradient-23)" id="矩形"></rect>
                    <rect rx="5.61681899" height="11.233638" width="78.2898876" y="56.1681899" x="60.5370787" opacity="0.597330729" fill="url(#linearGradient-23)" id="矩形备份"></rect>
                    <rect rx="5.61681899" height="11.233638" width="42.3404494" y="80.2402712" x="60.5370787" opacity="0.597330729" fill="url(#linearGradient-24)" id="矩形备份-2"></rect>
                    <g transform="translate(0.000000, 65.797022)" id="矩形">
                        <mask fill="white" id="mask-26">
                            <use xlink:href="#path-25"></use>
                        </mask>
                        <use xlink:href="#path-25" fill="#C0CEE3" id="蒙版"></use>
                        <polygon points="21.6165888 -23.2297036 67.9651209 -23.2808351 67.8575685 74.5834772 21.5090364 74.6346087" transform="translate(44.737079, 25.676887) rotate(-15.000000) translate(-44.737079, -25.676887)" mask="url(#mask-26)" opacity="0.397600446" style="mix-blend-mode: multiply;" fill="#C0CEE3" fill-opacity="0.606069712"></polygon>
                    </g>
                </g>
                <g transform="translate(63.000000, 74.000000)" id="编组-6">
                    <path fill="url(#linearGradient-27)" id="形状结合" d="M16.8262662,16.813909 C32.000925,1.64575649 56.603907,1.64575649 71.7785659,16.813909 C86.9532234,31.9820628 86.9532234,56.5744981 71.7785659,71.7426519 C56.603907,86.9108045 32.000925,86.9108045 16.8262662,71.7426519 C1.65160862,56.5744981 1.65160862,31.9820628 16.8262662,16.813909 Z M22.3214961,22.3067833 C10.1817701,34.4413064 10.1817701,54.1152546 22.3214961,66.2497776 C34.4612232,78.3842997 54.1436088,78.3842997 66.2833359,66.2497776 C78.423062,54.1152546 78.423062,34.4413064 66.2833359,22.3067833 C54.1436088,10.1722613 34.4612232,10.1722613 22.3214961,22.3067833 Z"></path>
                    <path fill="url(#linearGradient-28)" id="形状结合" d="M73.1523727,67.6229957 L80.0211429,74.4879957 L80.6469146,73.8631816 C81.8192592,72.6931046 83.7180395,72.6930251 84.8904819,73.863004 L114.594756,103.551819 C115.720648,104.675347 115.766139,106.470862 114.731714,107.649508 L114.596787,107.793533 C114.596478,107.793842 114.596169,107.794151 114.594934,107.793533 L107.848279,114.537805 C106.675935,115.707882 104.777154,115.707962 103.604712,114.537983 L73.9004377,84.8491678 C72.7745458,83.7256403 72.7290544,81.9301247 73.7634794,80.7514786 L73.8984071,80.607454 C73.8987159,80.607145 73.8990248,80.6068361 73.9002601,80.6074539 L74.5251429,79.9819957 L67.6571429,73.1158698 L73.1523727,67.6229957 Z"></path>
                    <circle r="31.0790522" cy="44.2782805" cx="44.302416" transform="translate(44.302416, 44.278280) rotate(-45.000000) translate(-44.302416, -44.278280)" fill="url(#linearGradient-29)" id="椭圆形"></circle>
                </g>
            </g>
        </g>
    </g>
</svg>