<?xml version="1.0" standalone="no"?><!DOCTYPE svg PUBLIC "-//W3C//DTD SVG 1.1//EN" "http://www.w3.org/Graphics/SVG/1.1/DTD/svg11.dtd"><svg t="1640006298884" class="icon" viewBox="0 0 1024 1024" version="1.1" xmlns="http://www.w3.org/2000/svg" p-id="12822" xmlns:xlink="http://www.w3.org/1999/xlink" width="256" height="256"><defs><style type="text/css"></style></defs><path d="M896 243.882V256H640V0h12.118c12.73 0 24.94 5.058 33.942 14.058l195.882 195.882A48.01 48.01 0 0 1 896 243.882zM576 272V0H176C149.49 0 128 21.49 128 48v928c0 26.51 21.49 48 48 48h672c26.51 0 48-21.49 48-48V320H624c-26.4 0-48-21.6-48-48z m192 288.032v223.926c0 42.89-51.886 63.996-81.942 33.942L576 707.882V784c0 26.51-21.49 48-48 48H304c-26.51 0-48-21.49-48-48V560c0-26.51 21.49-48 48-48h224c26.51 0 48 21.49 48 48v76.118l110.058-110.026c30.022-30.02 81.942-8.982 81.942 33.94z" p-id="12823" fill="#8a8a8a"></path></svg>