<?xml version="1.0" standalone="no"?><!DOCTYPE svg PUBLIC "-//W3C//DTD SVG 1.1//EN" "http://www.w3.org/Graphics/SVG/1.1/DTD/svg11.dtd"><svg t="1640004975864" class="icon" viewBox="0 0 1024 1024" version="1.1" xmlns="http://www.w3.org/2000/svg" p-id="3915" xmlns:xlink="http://www.w3.org/1999/xlink" width="256" height="256"><defs><style type="text/css"></style></defs><path d="M544 201.6a31.552 31.552 0 0 0-32 31.04v434.304a32 32 0 0 0 64 0V232.64a31.552 31.552 0 0 0-32-31.04z m0-75.072L329.6 338.112a30.4 30.4 0 0 0 6.4 43.456 32.832 32.832 0 0 0 38.4 0L544 214.016 713.6 377.6a31.424 31.424 0 0 0 43.392 1.344l1.408-1.344a29.76 29.76 0 0 0 0-42.816zM896 832H192a54.528 54.528 0 0 1-64-64v-119.68a32 32 0 0 1 64 0V768h704v-119.68a32 32 0 0 1 64 0V768a67.328 67.328 0 0 1-64 64z" p-id="3916" fill="#8a8a8a"></path></svg>