<?xml version="1.0" standalone="no"?><!DOCTYPE svg PUBLIC "-//W3C//DTD SVG 1.1//EN" "http://www.w3.org/Graphics/SVG/1.1/DTD/svg11.dtd"><svg t="1640663929773" class="icon" viewBox="0 0 1024 1024" version="1.1" xmlns="http://www.w3.org/2000/svg" p-id="10218" xmlns:xlink="http://www.w3.org/1999/xlink" width="256" height="256"><defs><style type="text/css"></style></defs><path d="M955.1 697.3c-0.4-1.2-0.8-2.4-1.3-3.5s-1.1-2.3-1.7-3.3c-0.9-1.5-2-3-3.2-4.3l-0.2-0.2c-0.5-0.6-1.1-1.1-1.7-1.7-1.7-1.6-3.7-3-5.9-4.1l-89.6-45.6-53.5 28.7 82.9 42.2L509.7 906 143 705.7l82.6-41.6-53.4-29.1-89.3 45c-1.3 0.7-2.5 1.4-3.6 2.3-0.8 0.6-1.5 1.1-2.2 1.8-1 0.9-2 1.9-2.9 3-0.9 1.1-1.7 2.2-2.4 3.3-1.6 2.7-2.8 5.7-3.5 8.8-0.2 0.9-0.3 1.8-0.4 2.7-0.1 0.9-0.2 1.8-0.2 2.7v1.4c0.1 3.1 0.7 6.2 1.8 9.1 0.4 1 0.8 2 1.3 2.9 0.6 1.2 1.4 2.4 2.2 3.5s1.7 2.2 2.7 3.2c1.9 2 4.2 3.7 6.6 5L238.8 815l257.6 140.6c4.1 2.2 8.7 3.4 13.4 3.4 4.6 0 9.2-1.1 13.2-3.4l340.3-183.8 78.3-42.3c0.4-0.2 0.8-0.4 1.1-0.6 0.4-0.2 0.7-0.5 1.1-0.7 1.5-1 2.8-2.1 4.1-3.3 4.2-4 7-9.2 8-14.9 0.1-0.6 0.2-1.1 0.3-1.7 0.1-1.2 0.2-2.3 0.2-3.5 0-1.3-0.1-2.6-0.3-3.8-0.4-1.2-0.6-2.5-1-3.7z" p-id="10219" fill="#8c8c8c"></path><path d="M954.1 493.9c-0.6-1.4-1.2-2.8-2-4-0.9-1.5-2-3-3.2-4.3l-0.2-0.2c-0.5-0.6-1.1-1.1-1.7-1.7-1.7-1.6-3.7-3-5.9-4.1L851.5 434 798 462.8l82.9 42.2-84.2 45.5-53.5 28.9-53.5 28.9-179.9 97.2-175.7-95.9-53.3-29.1-53.3-29.1-84.5-46.2 82.6-41.6-53.3-29.1-19.9 10-69.4 35c-1.3 0.7-2.5 1.4-3.6 2.3-0.8 0.6-1.5 1.1-2.2 1.8-2.1 1.9-3.8 4-5.2 6.3-0.7 1.2-1.3 2.4-1.9 3.6-0.4 0.8-0.7 1.7-0.9 2.5-0.3 0.9-0.5 1.7-0.7 2.6-0.2 0.8-0.3 1.6-0.4 2.5v0.3c-0.1 0.8-0.2 1.7-0.2 2.5v0.1c0 1.7 0.1 3.4 0.4 5.1 0.2 1.1 0.4 2.3 0.8 3.4 0.2 0.6 0.3 1.1 0.5 1.7 0.4 1.1 0.9 2.2 1.4 3.3 0.6 1.2 1.4 2.4 2.2 3.5 0.8 1.1 1.7 2.2 2.7 3.2 1.9 2 4.2 3.7 6.6 5l90.8 49.6 53.3 29.1 53.3 29.1 108.5 59.3 108.1 59c4.1 2.2 8.7 3.4 13.4 3.4 1.9 0 3.7-0.2 5.6-0.6 1-0.2 1.9-0.4 2.9-0.7 1.6-0.5 3.2-1.2 4.7-2.1L744 636l53.5-28.9 53.5-28.9 90.7-49c0.4-0.2 0.8-0.4 1.1-0.6 0.4-0.2 0.7-0.5 1.1-0.7 1.5-1 2.8-2.1 4.1-3.3 1.7-1.6 3.1-3.4 4.3-5.4l0.9-1.5c0.8-1.5 1.5-3.1 2-4.7 0.3-1.1 0.6-2.2 0.8-3.3 0.3-1.7 0.5-3.5 0.5-5.2-0.1-2.8-0.5-5.5-1.4-8.2-0.4-0.9-0.7-1.7-1-2.4z" p-id="10220" fill="#8c8c8c"></path><path d="M954.9 295.5c-0.2-0.8-0.5-1.5-0.8-2.2-0.3-0.8-0.7-1.5-1-2.2-2.6-5.1-6.7-9.4-12-12.1L664.3 138 526.7 68c-3.9-2-8.3-3-12.6-3-4.3 0-8.7 1-12.7 3L153 243.5l-70.1 35.3c-0.4 0.2-0.9 0.5-1.3 0.7-0.8 0.5-1.6 1-2.4 1.6s-1.5 1.1-2.2 1.8c-1 0.9-2 1.9-2.9 3s-1.7 2.2-2.4 3.3c-0.7 1.2-1.3 2.4-1.9 3.6-0.4 0.8-0.7 1.7-0.9 2.5-0.3 0.9-0.5 1.7-0.7 2.6s-0.3 1.8-0.4 2.7c-0.1 0.9-0.2 1.8-0.2 2.7-0.1 4.5 0.9 9.1 3.1 13.5 1.3 2.4 2.9 4.7 4.9 6.7 1.3 1.3 2.8 2.5 4.3 3.6l1.5 0.9c0.3 0.2 0.6 0.3 0.8 0.5l90.8 49.6 53.3 29.1 53.3 29.1 84.4 46.1 53.3 29.1 53.3 29.1 25.5 13.9c4.1 2.2 8.7 3.4 13.4 3.4 1.1 0 2.3-0.1 3.4-0.2 0.6-0.1 1.1-0.2 1.7-0.3 1.1-0.2 2.2-0.5 3.3-0.8 1.6-0.5 3.2-1.2 4.7-2.1l29.7-16 53.5-28.9 53.5-28.9 84.2-45.5 53.5-28.9 53.5-28.9 90.7-49c3.4-1.8 6.4-4.3 8.7-7.3 1.2-1.5 2.2-3.1 3-4.7 2-3.9 3-8.3 3-12.8 0.3-2.7-0.2-5.5-1-8.1z m-158.3 54.3l-53.5 28.9-53.5 28.9-84.2 45.5-53.5 28.9-42.2 22.8-37.9-20.7-53.3-29.1-84.4-46.1-53.3-29.1-53.3-29.1-84.5-46.1 371.1-187 366.8 186.7-84.3 45.5z" p-id="10221" fill="#8c8c8c"></path></svg>